<?xml version="1.0" encoding="UTF-8" standalone="no"?>
<!-- Created with Inkscape (http://www.inkscape.org/) -->

<svg
   xmlns:dc="http://purl.org/dc/elements/1.1/"
   xmlns:cc="http://creativecommons.org/ns#"
   xmlns:rdf="http://www.w3.org/1999/02/22-rdf-syntax-ns#"
   xmlns:svg="http://www.w3.org/2000/svg"
   xmlns="http://www.w3.org/2000/svg"
   xmlns:sodipodi="http://sodipodi.sourceforge.net/DTD/sodipodi-0.dtd"
   xmlns:inkscape="http://www.inkscape.org/namespaces/inkscape"
   width="793"
   height="500"
   viewBox="0 0 209.81458 132.29166"
   version="1.1"
   id="svg8"
   inkscape:version="0.92.1 r15371"
   sodipodi:docname="Logo.svg"
   inkscape:export-filename="C:\Users\Tobin\Google Drive\PEF Personal\Tobinc\logosquare.png"
   inkscape:export-xdpi="13.71"
   inkscape:export-ydpi="13.71">
  <defs
     id="defs2" />
  <sodipodi:namedview
     id="base"
     pagecolor="#ffffff"
     bordercolor="#666666"
     borderopacity="1.0"
     inkscape:pageopacity="0.0"
     inkscape:pageshadow="2"
     inkscape:zoom="0.98994949"
     inkscape:cx="463.9559"
     inkscape:cy="268.08955"
     inkscape:document-units="mm"
     inkscape:current-layer="layer1"
     showgrid="false"
     units="px"
     inkscape:window-width="1600"
     inkscape:window-height="837"
     inkscape:window-x="-8"
     inkscape:window-y="-8"
     inkscape:window-maximized="1" />
  <metadata
     id="metadata5">
    <rdf:RDF>
      <cc:Work
         rdf:about="">
        <dc:format>image/svg+xml</dc:format>
        <dc:type
           rdf:resource="http://purl.org/dc/dcmitype/StillImage" />
        <dc:title></dc:title>
      </cc:Work>
    </rdf:RDF>
  </metadata>
  <g
     inkscape:label="Layer 1"
     inkscape:groupmode="layer"
     id="layer1"
     transform="translate(0,-164.70833)">
    <g
       inkscape:groupmode="layer"
       id="layer2"
       inkscape:label="Back Layer" />
    <g
       id="g4828"
       transform="matrix(1.3417557,0,0,1.3417557,-36.17944,119.4415)">
      <ellipse
         cx="64.851517"
         cy="81.526245"
         rx="27.528761"
         ry="16.036171"
         style="fill:#cccccc;stroke-width:0.40997031"
         id="path3691" />
      <ellipse
         transform="matrix(0.63296519,-0.77418026,0.84931112,0.52789262,0,0)"
         id="ellipse3693-8"
         style="fill:#cccccc;stroke-width:0.17329577"
         ry="7.0512972"
         rx="11.186375"
         cy="131.112"
         cx="-20.054476" />
      <ellipse
         transform="matrix(0.97724531,-0.21211226,0.20481824,0.97880002,0,0)"
         id="ellipse3693-96"
         style="fill:#cccccc;stroke-width:0.30726936"
         ry="11.357678"
         rx="21.833904"
         cy="110.07888"
         cx="101.64156" />
      <ellipse
         transform="matrix(-0.56645471,-0.82409287,0.83155806,-0.55543783,0,0)"
         id="ellipse3693-9-1-4-0-4-7-8"
         style="fill:#999999;stroke-width:0.07882059"
         ry="3.0778625"
         rx="5.3016682"
         cy="95.109344"
         cx="-176.99696" />
      <ellipse
         transform="matrix(-0.76960349,0.63852209,-0.39965802,-0.91666432,0,0)"
         id="ellipse3693-9-1-4-0-4-7-1-7"
         style="fill:#999999;stroke-width:0.04968006"
         ry="1.7259988"
         rx="3.7558312"
         cy="-198.13708"
         cx="-130.2926" />
      <ellipse
         transform="matrix(0.9780457,-0.2083905,0.24799669,0.96876088,0,0)"
         id="ellipse3693-6-2-0"
         style="fill:#ff0000;stroke-width:0.15215856"
         ry="8.5970688"
         rx="7.0733457"
         cy="106.90395"
         cx="150.38126" />
      <ellipse
         id="ellipse3693-85"
         style="fill:#cccccc;stroke-width:0.10685302"
         ry="5.2041054"
         rx="5.7624874"
         cy="79.904472"
         cx="143.45235" />
      <ellipse
         transform="matrix(0.54243049,-0.84010069,0.00524724,0.99998623,0,0)"
         id="ellipse3693-9-6"
         style="fill:#999999;stroke-width:0.18504068"
         ry="2.9132798"
         rx="30.869867"
         cy="167.6564"
         cx="79.8806" />
      <ellipse
         id="ellipse3693-9-0"
         style="fill:#999999;stroke-width:0.06345094"
         ry="3.2747462"
         rx="3.2290967"
         cy="76.613213"
         cx="60.596161" />
      <ellipse
         transform="matrix(0.91483143,0.40383592,-0.7986971,0.60173328,0,0)"
         id="ellipse3693-9-1"
         style="fill:#999999;stroke-width:0.10826273"
         ry="1.5434021"
         rx="19.946257"
         cy="52.20013"
         cx="130.19753" />
      <ellipse
         transform="matrix(0.38202788,-0.9241508,0.71012561,0.70407501,0,0)"
         id="ellipse3693-9-1-4"
         style="fill:#999999;stroke-width:0.10591596"
         ry="1.4730445"
         rx="20.002735"
         cy="118.1303"
         cx="-29.001278" />
      <ellipse
         id="ellipse3693-9-0-9"
         style="fill:#999999;stroke-width:0.06345094"
         ry="3.2747462"
         rx="3.2290967"
         cy="93.073357"
         cx="80.180862" />
      <ellipse
         id="ellipse3693-9-0-0"
         style="fill:#999999;stroke-width:0.06345094"
         ry="3.2747462"
         rx="3.2290967"
         cy="97.075714"
         cx="117.4538" />
      <ellipse
         id="ellipse3693-9-0-2"
         style="fill:#999999;stroke-width:0.06345094"
         ry="3.2747462"
         rx="3.2290967"
         cy="92.078644"
         cx="147.76874" />
      <ellipse
         transform="matrix(0.99870048,0.05096431,-0.27158748,0.96241376,0,0)"
         id="ellipse3693-9-1-4-0"
         style="fill:#999999;stroke-width:0.09745963"
         ry="1.6625199"
         rx="15.006001"
         cy="91.27935"
         cx="122.25482" />
      <ellipse
         transform="matrix(-0.21531837,-0.97654391,0.98522521,0.17126379,0,0)"
         id="ellipse3693-9-1-4-05"
         style="fill:#999999;stroke-width:0.10591596"
         ry="1.4730445"
         rx="20.002735"
         cy="135.6077"
         cx="-91.604271" />
      <ellipse
         transform="matrix(0.98984203,-0.14217155,-0.08131097,0.99668878,0,0)"
         id="ellipse3693-9-1-4-0-0"
         style="fill:#999999;stroke-width:0.09745964"
         ry="1.6625199"
         rx="15.006001"
         cy="116.69133"
         cx="144.55768" />
      <ellipse
         transform="matrix(0.92014388,-0.39158044,0.01919251,0.99981581,0,0)"
         id="ellipse3693-9-1-4-0-4"
         style="fill:#999999;stroke-width:0.09284812"
         ry="2.1835599"
         rx="10.369635"
         cy="145.05457"
         cx="135.04994" />
      <ellipse
         transform="matrix(-0.51556377,-0.85685121,0.97575952,-0.21884553,0,0)"
         id="ellipse3693-9-1-4-05-7"
         style="fill:#999999;stroke-width:0.07967567"
         ry="1.1596621"
         rx="14.378131"
         cy="105.52686"
         cx="-81.420387" />
      <ellipse
         transform="matrix(-0.96515039,-0.26169587,0.53274307,-0.84627703,0,0)"
         id="ellipse3693-9-1-4-05-7-7"
         style="fill:#999999;stroke-width:0.06102892"
         ry="0.87709028"
         rx="11.153458"
         cy="2.978368"
         cx="-151.93649" />
      <ellipse
         transform="matrix(0.49484609,-0.86898064,0.66843623,0.74376946,0,0)"
         id="ellipse3693-9-1-4-05-7-5"
         style="fill:#999999;stroke-width:0.07967567"
         ry="1.1596621"
         rx="14.378131"
         cy="182.51523"
         cx="102.65814" />
      <ellipse
         transform="matrix(-0.06152492,-0.99810555,0.97239875,0.23332524,0,0)"
         id="ellipse3693-9-1-4-05-7-7-8"
         style="fill:#999999;stroke-width:0.06102892"
         ry="0.87709028"
         rx="11.153458"
         cy="185.60033"
         cx="-1.8275409" />
      <ellipse
         transform="matrix(0.39428685,0.91898742,-0.98205217,0.18860949,0,0)"
         id="ellipse3693-2"
         style="fill:#cccccc;stroke-width:0.37429371"
         ry="16.550369"
         rx="22.233089"
         cy="-122.36166"
         cx="108.24393" />
      <ellipse
         transform="matrix(0.25865477,-0.96596983,0.96244221,0.27148664,0,0)"
         id="ellipse3693-9-1-4-0-4-7"
         style="fill:#999999;stroke-width:0.07882059"
         ry="3.0778625"
         rx="5.3016682"
         cy="187.74805"
         cx="-43.849243" />
      <ellipse
         transform="matrix(0.76971472,0.63838801,-0.82704746,0.56213211,0,0)"
         id="ellipse3693-9-1-4-0-4-7-1"
         style="fill:#999999;stroke-width:0.04968006"
         ry="1.7259988"
         rx="3.7558312"
         cy="-33.108936"
         cx="185.54509" />
      <ellipse
         transform="matrix(0.9780457,-0.2083905,0.24799669,0.96876088,0,0)"
         id="ellipse3693-6-2"
         style="fill:#ff0000;stroke-width:0.15215856"
         ry="8.5970688"
         rx="7.0733461"
         cy="104.19424"
         cx="137.66652" />
    </g>
  </g>
</svg>
